<mxfile host="app.diagrams.net" modified="2022-02-22T19:47:07.092Z" agent="5.0 (X11)" etag="wmyJT1X5oSQ5fwu-W2SR" version="16.6.2" type="github">
  <diagram id="GPnwLdB144wYZbpDydB8" name="Page-1">
    <mxGraphModel dx="1422" dy="741" grid="1" gridSize="10" guides="1" tooltips="1" connect="1" arrows="1" fold="1" page="1" pageScale="1" pageWidth="827" pageHeight="1169" math="0" shadow="0">
      <root>
        <mxCell id="0" />
        <mxCell id="1" parent="0" />
        <mxCell id="20cnnHnL2ceA7xaYP87n-1" value="" style="shape=mxgraph.cisco.routers.router;sketch=0;html=1;pointerEvents=1;dashed=0;fillColor=#036897;strokeColor=#ffffff;strokeWidth=2;verticalLabelPosition=bottom;verticalAlign=top;align=center;outlineConnect=0;" vertex="1" parent="1">
          <mxGeometry x="306" y="261.5" width="108" height="83" as="geometry" />
        </mxCell>
        <mxCell id="20cnnHnL2ceA7xaYP87n-2" value="" style="shape=mxgraph.cisco.storage.web_cluster;sketch=0;html=1;pointerEvents=1;dashed=0;fillColor=#036897;strokeColor=#ffffff;strokeWidth=2;verticalLabelPosition=bottom;verticalAlign=top;align=center;outlineConnect=0;" vertex="1" parent="1">
          <mxGeometry x="550" y="70" width="186" height="106" as="geometry" />
        </mxCell>
        <mxCell id="20cnnHnL2ceA7xaYP87n-3" value="" style="shape=mxgraph.cisco.storage.web_cluster;sketch=0;html=1;pointerEvents=1;dashed=0;fillColor=#036897;strokeColor=#ffffff;strokeWidth=2;verticalLabelPosition=bottom;verticalAlign=top;align=center;outlineConnect=0;" vertex="1" parent="1">
          <mxGeometry x="550" y="440" width="186" height="106" as="geometry" />
        </mxCell>
        <mxCell id="20cnnHnL2ceA7xaYP87n-4" value="" style="shape=mxgraph.cisco.storage.web_cluster;sketch=0;html=1;pointerEvents=1;dashed=0;fillColor=#036897;strokeColor=#ffffff;strokeWidth=2;verticalLabelPosition=bottom;verticalAlign=top;align=center;outlineConnect=0;" vertex="1" parent="1">
          <mxGeometry x="550" y="250" width="186" height="106" as="geometry" />
        </mxCell>
        <mxCell id="20cnnHnL2ceA7xaYP87n-5" value="" style="shape=mxgraph.cisco.servers.storage_server;sketch=0;html=1;pointerEvents=1;dashed=0;fillColor=#036897;strokeColor=#ffffff;strokeWidth=2;verticalLabelPosition=bottom;verticalAlign=top;align=center;outlineConnect=0;" vertex="1" parent="1">
          <mxGeometry x="110" y="90" width="120" height="110" as="geometry" />
        </mxCell>
        <mxCell id="20cnnHnL2ceA7xaYP87n-6" value="" style="shape=mxgraph.cisco.storage.cloud;sketch=0;html=1;pointerEvents=1;dashed=0;fillColor=#036897;strokeColor=#ffffff;strokeWidth=2;verticalLabelPosition=bottom;verticalAlign=top;align=center;outlineConnect=0;" vertex="1" parent="1">
          <mxGeometry x="70" y="410" width="186" height="106" as="geometry" />
        </mxCell>
        <mxCell id="20cnnHnL2ceA7xaYP87n-8" value="" style="endArrow=classic;startArrow=classic;html=1;rounded=0;" edge="1" parent="1" source="20cnnHnL2ceA7xaYP87n-6" target="20cnnHnL2ceA7xaYP87n-1">
          <mxGeometry width="50" height="50" relative="1" as="geometry">
            <mxPoint x="256" y="410" as="sourcePoint" />
            <mxPoint x="306" y="360" as="targetPoint" />
          </mxGeometry>
        </mxCell>
        <mxCell id="20cnnHnL2ceA7xaYP87n-9" value="" style="endArrow=classic;startArrow=classic;html=1;rounded=0;" edge="1" parent="1" source="20cnnHnL2ceA7xaYP87n-1" target="20cnnHnL2ceA7xaYP87n-3">
          <mxGeometry width="50" height="50" relative="1" as="geometry">
            <mxPoint x="390" y="380" as="sourcePoint" />
            <mxPoint x="440" y="330" as="targetPoint" />
          </mxGeometry>
        </mxCell>
        <mxCell id="20cnnHnL2ceA7xaYP87n-10" value="" style="endArrow=classic;startArrow=classic;html=1;rounded=0;" edge="1" parent="1" source="20cnnHnL2ceA7xaYP87n-1" target="20cnnHnL2ceA7xaYP87n-4">
          <mxGeometry width="50" height="50" relative="1" as="geometry">
            <mxPoint x="414" y="280" as="sourcePoint" />
            <mxPoint x="464" y="230" as="targetPoint" />
          </mxGeometry>
        </mxCell>
        <mxCell id="20cnnHnL2ceA7xaYP87n-11" value="" style="endArrow=classic;startArrow=classic;html=1;rounded=0;" edge="1" parent="1" source="20cnnHnL2ceA7xaYP87n-2" target="20cnnHnL2ceA7xaYP87n-1">
          <mxGeometry width="50" height="50" relative="1" as="geometry">
            <mxPoint x="390" y="380" as="sourcePoint" />
            <mxPoint x="440" y="330" as="targetPoint" />
          </mxGeometry>
        </mxCell>
        <mxCell id="20cnnHnL2ceA7xaYP87n-12" value="" style="endArrow=classic;startArrow=classic;html=1;rounded=0;" edge="1" parent="1" source="20cnnHnL2ceA7xaYP87n-1" target="20cnnHnL2ceA7xaYP87n-5">
          <mxGeometry width="50" height="50" relative="1" as="geometry">
            <mxPoint x="250" y="250" as="sourcePoint" />
            <mxPoint x="300" y="200" as="targetPoint" />
          </mxGeometry>
        </mxCell>
        <mxCell id="20cnnHnL2ceA7xaYP87n-13" value="&lt;font style=&quot;font-size: 14px&quot;&gt;Серверное хранилище&lt;/font&gt;" style="text;html=1;align=center;verticalAlign=middle;resizable=0;points=[];autosize=1;strokeColor=none;fillColor=none;" vertex="1" parent="1">
          <mxGeometry x="100" y="60" width="160" height="20" as="geometry" />
        </mxCell>
        <mxCell id="20cnnHnL2ceA7xaYP87n-14" value="&lt;font style=&quot;font-size: 14px&quot;&gt;Сеть управления и обслуживания (ОАМ)&lt;br&gt;&lt;/font&gt;" style="text;html=1;align=center;verticalAlign=middle;resizable=0;points=[];autosize=1;strokeColor=none;fillColor=none;" vertex="1" parent="1">
          <mxGeometry x="40" y="526" width="280" height="20" as="geometry" />
        </mxCell>
        <mxCell id="20cnnHnL2ceA7xaYP87n-15" value="Юридический отдел" style="text;html=1;align=center;verticalAlign=middle;resizable=0;points=[];autosize=1;strokeColor=none;fillColor=none;fontSize=14;" vertex="1" parent="1">
          <mxGeometry x="575" y="50" width="150" height="20" as="geometry" />
        </mxCell>
        <mxCell id="20cnnHnL2ceA7xaYP87n-16" value="Экономический отдел" style="text;html=1;align=center;verticalAlign=middle;resizable=0;points=[];autosize=1;strokeColor=none;fillColor=none;fontSize=14;" vertex="1" parent="1">
          <mxGeometry x="575" y="360" width="160" height="20" as="geometry" />
        </mxCell>
        <mxCell id="20cnnHnL2ceA7xaYP87n-17" value="Бухгалтерия" style="text;html=1;align=center;verticalAlign=middle;resizable=0;points=[];autosize=1;strokeColor=none;fillColor=none;fontSize=14;" vertex="1" parent="1">
          <mxGeometry x="605" y="570" width="100" height="20" as="geometry" />
        </mxCell>
        <mxCell id="20cnnHnL2ceA7xaYP87n-18" value="172.28.0.0 /24" style="text;html=1;align=center;verticalAlign=middle;resizable=0;points=[];autosize=1;strokeColor=none;fillColor=none;fontSize=14;" vertex="1" parent="1">
          <mxGeometry x="125" y="40" width="110" height="20" as="geometry" />
        </mxCell>
        <mxCell id="20cnnHnL2ceA7xaYP87n-19" value="172.28.1.0 /24" style="text;html=1;align=center;verticalAlign=middle;resizable=0;points=[];autosize=1;strokeColor=none;fillColor=none;fontSize=14;" vertex="1" parent="1">
          <mxGeometry x="120" y="546" width="110" height="20" as="geometry" />
        </mxCell>
        <mxCell id="20cnnHnL2ceA7xaYP87n-20" value="172.28.2.0 /24" style="text;html=1;align=center;verticalAlign=middle;resizable=0;points=[];autosize=1;strokeColor=none;fillColor=none;fontSize=14;" vertex="1" parent="1">
          <mxGeometry x="600" y="30" width="110" height="20" as="geometry" />
        </mxCell>
        <mxCell id="20cnnHnL2ceA7xaYP87n-21" value="172.28.3.0 /24" style="text;html=1;align=center;verticalAlign=middle;resizable=0;points=[];autosize=1;strokeColor=none;fillColor=none;fontSize=14;" vertex="1" parent="1">
          <mxGeometry x="600" y="230" width="110" height="20" as="geometry" />
        </mxCell>
        <mxCell id="20cnnHnL2ceA7xaYP87n-22" value="172.28.4.0 /24" style="text;html=1;align=center;verticalAlign=middle;resizable=0;points=[];autosize=1;strokeColor=none;fillColor=none;fontSize=14;" vertex="1" parent="1">
          <mxGeometry x="600" y="550" width="110" height="20" as="geometry" />
        </mxCell>
      </root>
    </mxGraphModel>
  </diagram>
</mxfile>
